<svg width="24" height="24" viewBox="0 0 24 24" fill="none" xmlns="http://www.w3.org/2000/svg">
  <path d="M10.5642 6.69888C11.0322 6.56711 11.5145 6.5 12 6.5C15.9597 6.5 19.3624 8.28039 21.5 12C20.7987 13.2204 19.9614 14.2323 19.0158 15.0173" stroke="#6A6A6A" stroke-width="2" stroke-linecap="round" stroke-linejoin="round"/>
  <path d="M7.07938 8.20468C5.41196 9.01362 3.84169 10.2909 2.5 12C4.63761 15.7196 8.04028 17.5 12 17.5C13.5526 17.5 15.0195 17.2262 16.3549 16.6777" stroke="#6A6A6A" stroke-width="2" stroke-linecap="round" stroke-linejoin="round"/>
  <path d="M10.586 10.5858C10.2241 10.9477 10 11.4477 10 12C10 13.1046 10.8954 14 12 14C12.5523 14 13.0523 13.776 13.4142 13.4142" stroke="#6A6A6A" stroke-width="2" stroke-linecap="round"/>
  <path d="M4 4L20 20" stroke="#6A6A6A" stroke-width="2" stroke-linecap="round"/>
</svg>
